<svg width="1440" height="319" viewBox="0 0 1440 319" fill="none" xmlns="http://www.w3.org/2000/svg">
<path fill-rule="evenodd" clip-rule="evenodd" d="M301 34C314.32 34 325.39 43.65 327.59 56.35C335.03 57.19 340.82 63.4999 340.83 71.1699C340.83 79.3999 334.16 86.08 325.92 86.08C322.46 86.08 319.29 84.8899 316.76 82.9199C312.32 86.1099 306.88 88 301 88C297.15 88 293.48 87.19 290.16 85.73C286.04 91.92 279 96 271 96C261.7 96 253.7 90.4799 250.07 82.5399C246.2 84.4399 241.85 85.5 237.25 85.5C231.8 85.5 226.71 84.0099 222.35 81.4199C218.6 84.6899 213.71 86.6899 208.34 86.6899C196.56 86.6899 187 77.14 187 65.35C187 53.56 196.55 44 208.34 44C209.12 44 209.88 44.05 210.63 44.13C215.24 34.03 225.42 27 237.25 27C240 27 242.67 27.39 245.2 28.1C250.25 21.94 257.91 18 266.5 18C278.16 18 288.12 25.26 292.12 35.5C294.9 34.53 297.89 34 301 34ZM863.14 55.25C862.33 55.25 861.54 55.35 860.78 55.52C858.18 50.46 852.92 46.99 846.85 46.99C846.821 46.99 846.792 46.9923 846.762 46.9947C846.73 46.9973 846.696 47 846.66 47C843.63 42.19 838.29 38.99 832.19 38.99C827.98 38.99 824.14 40.51 821.16 43.03C818.7 37.7 813.32 33.99 807.06 33.99C799.2 33.99 792.73 39.83 791.68 47.4C790.55 47.14 789.39 46.99 788.18 46.99C788.14 46.99 788.1 46.9925 788.06 46.995C788.02 46.9975 787.98 47 787.94 47C783.39 39.22 774.96 33.99 765.3 33.99C758.64 33.99 752.57 36.4799 747.94 40.5699C746.73 40.1199 745.48 39.77 744.2 39.51C741.14 31.05 733.03 25 723.51 25C714.18 25 706.22 30.81 703.01 39C699.76 39.02 696.66 39.6699 693.82 40.8199C689.94 36.6299 684.41 34 678.25 34C666.51 34 657 43.52 657 55.25C657 66.99 666.51 76.5 678.25 76.5C679.36 76.5 680.44 76.39 681.5 76.23C685.79 83.77 693.88 88.85 703.17 88.85C709.83 88.85 715.87 86.23 720.34 81.98C725.01 87 731.67 90.15 739.07 90.15C745.19 90.15 750.81 88 755.21 84.41C758.31 85.7 761.71 86.4199 765.28 86.4199C772.93 86.4199 779.82 83.14 784.61 77.91C785.75 78.18 786.94 78.33 788.16 78.33C791.87 78.33 795.27 77.03 797.96 74.88C800.69 81.65 807.31 86.4199 815.05 86.4199C823.42 86.4199 830.48 80.84 832.73 73.2C833.52 73.17 834.29 73.09 835.05 72.97C837.92 76.25 842.13 78.33 846.83 78.33C850.72 78.33 854.27 76.8999 857.01 74.5499C858.74 75.7699 860.85 76.5 863.13 76.5C869 76.5 873.76 71.74 873.76 65.88C873.77 60.01 869.01 55.25 863.14 55.25ZM1233 231.74C1239.9 231.74 1245.5 237.34 1245.5 244.24C1245.5 249.08 1242.74 253.27 1238.71 255.35C1240.16 258.17 1241 261.35 1241 264.74C1241 276.06 1231.82 285.24 1220.5 285.24C1219.16 285.24 1217.86 285.1 1216.59 284.86C1213.93 288.09 1209.91 290.14 1205.41 290.14C1201.32 290.14 1197.63 288.44 1195 285.71C1190.18 288.52 1184.58 290.14 1178.6 290.14C1170.68 290.14 1163.41 287.31 1157.76 282.6C1154.94 290.21 1147.63 295.65 1139.03 295.65C1132.87 295.65 1127.36 292.85 1123.69 288.47C1119.81 289.54 1115.73 290.13 1111.51 290.13C1095.87 290.13 1082.08 282.24 1073.89 270.23C1070.19 271.97 1066.05 272.95 1061.69 272.95C1057.15 272.95 1052.86 271.89 1049.05 270.02C1046.43 271.68 1043.33 272.65 1040 272.65C1030.61 272.65 1023 265.04 1023 255.65C1023 248.64 1027.23 242.64 1033.28 240.03C1035.32 226.17 1047.26 215.52 1061.69 215.52C1066.22 215.52 1070.5 216.57 1074.31 218.44C1082.54 206.76 1096.13 199.13 1111.5 199.13C1121.26 199.13 1130.29 202.21 1137.7 207.44C1142.59 198.82 1151.85 193 1162.47 193C1177.62 193 1190 204.85 1190.88 219.78C1194.35 213.62 1200.94 209.45 1208.51 209.45C1219.69 209.45 1228.75 218.51 1228.75 229.69C1228.75 230.68 1228.66 231.63 1228.52 232.58C1229.91 232.05 1231.42 231.74 1233 231.74ZM720.67 242.34C730.79 242.34 739 250.55 739 260.67C739 269.44 732.84 276.77 724.58 278.56C721.61 286.78 713.77 292.66 704.53 292.66C697.09 292.66 690.55 288.85 686.73 283.07C683.76 287.06 679.02 289.65 673.66 289.65C669.4 289.65 665.52 287.99 662.61 285.31C659.28 290.69 653.35 294.28 646.56 294.28C639.63 294.28 633.6 290.54 630.31 284.99C628.49 286.17 626.32 286.86 623.99 286.86C621.35 286.86 618.93 285.98 616.97 284.5C613.11 286.8 608.59 288.13 603.76 288.13C598.19 288.13 593.03 286.36 588.8 283.36C585.86 285.87 582.04 287.4 577.87 287.4C570.35 287.4 563.99 282.47 561.81 275.68C560.55 276.1 559.2 276.33 557.8 276.33C550.73 276.33 545 270.6 545 263.53C545 259.53 546.84 255.97 549.71 253.62C549.27 251.98 549.02 250.26 549.02 248.48C549.02 237.31 558.07 228.26 569.24 228.26C571.99 228.26 574.61 228.82 577 229.81C581.79 219.12 592.52 211.67 604.99 211.67C611.6 211.67 617.71 213.77 622.72 217.32C627.27 208.8 636.23 203 646.56 203C660.21 203 671.49 213.14 673.3 226.3C678.03 222.96 683.78 221 690 221C703.44 221 714.74 230.15 718.03 242.55C718.89 242.43 719.77 242.34 720.67 242.34ZM431.11 264.51C430.5 263.16 429.71 261.91 428.77 260.79C426.02 255.16 420.25 251.27 413.56 251.27C410.24 251.27 407.16 252.24 404.54 253.89C399.92 248.74 393.21 245.5 385.75 245.5C378.32 245.5 371.64 248.71 367.02 253.82C362.85 248.74 356.53 245.5 349.46 245.5C343.12 245.5 337.39 248.1 333.27 252.29C329.69 248.14 324.41 245.5 318.5 245.5C315.56 245.5 312.78 246.17 310.27 247.34C308.94 234.78 298.32 225 285.41 225C272.63 225 262.11 234.59 260.6 246.96C258.67 246.04 256.52 245.5 254.24 245.5C246.37 245.5 239.95 251.68 239.53 259.45C238.48 259.17 237.38 259 236.24 259C233.23 259 230.47 260.05 228.29 261.79C224.63 257.75 219.36 255.21 213.49 255.21C210.51 255.21 207.69 255.88 205.15 257.05C201.46 245.43 190.59 237 177.74 237C167.18 237 157.95 242.7 152.95 251.19C149.35 247.67 144.42 245.5 138.99 245.5C134.95 245.5 131.2 246.71 128.06 248.76C125.28 239.36 116.59 232.5 106.29 232.5C100.87 232.5 95.91 234.4 92 237.56C87.56 230.04 79.38 225 70.02 225C55.93 225 44.5 236.43 44.5 250.52C44.5 250.84 44.51 251.15 44.52 251.46C36.68 253.99 31 261.34 31 270.03C31 280.81 39.73 289.54 50.51 289.54C56.95 289.54 62.64 286.41 66.19 281.6C67.58 282.48 69.23 283 71 283C71.63 283 72.25 282.93 72.84 282.81C74.42 290.51 81.23 296.29 89.39 296.29C96.42 296.29 102.44 292 104.99 285.89C106.04 286.4 107.22 286.7 108.48 286.7C109.14 286.7 109.78 286.61 110.39 286.46C111.92 287.64 113.76 288.44 115.76 288.73C117.38 292.47 121.11 295.1 125.45 295.1C128.19 295.1 130.67 294.05 132.55 292.34C134.85 294.72 138.07 296.21 141.64 296.21C147.54 296.21 152.49 292.15 153.87 286.68C155.05 286.63 156.16 286.31 157.14 285.77C162.36 291.15 169.67 294.49 177.76 294.49C181.5 294.49 185.07 293.77 188.35 292.47C189.7 294.01 191.68 294.99 193.89 294.99C196.93 294.99 199.54 293.15 200.67 290.52C204.15 293.44 208.63 295.2 213.52 295.2C218.63 295.2 223.28 293.27 226.81 290.12C228.2 291.18 229.94 291.82 231.82 291.82C233.86 291.82 235.72 291.08 237.17 289.87C239.18 295.26 244.36 299.11 250.45 299.11C254.91 299.11 258.88 297.05 261.48 293.83C263.05 294.42 264.75 294.75 266.52 294.75C271.34 294.75 275.6 292.39 278.23 288.77C280.97 293.39 286 296.5 291.77 296.5C295.55 296.5 299.01 295.17 301.73 292.95C305.83 294.87 310.9 296 316.4 296C323.09 296 329.14 294.32 333.58 291.6C335.25 297.32 340.52 301.5 346.77 301.5C351.38 301.5 355.45 299.22 357.95 295.74C360.18 298.06 363.3 299.5 366.77 299.5C370.89 299.5 374.53 297.46 376.75 294.34C379.55 295.41 382.59 296 385.77 296C391.59 296 396.94 294.03 401.21 290.72C404.03 292.84 408.51 294.22 413.57 294.22C420.92 294.22 427.06 291.32 428.63 287.44C429.24 287.54 429.87 287.61 430.51 287.61C436.9 287.61 442.08 282.43 442.08 276.04C442.07 269.87 437.21 264.83 431.11 264.51ZM949.94 235.51C957.35 235.51 963.36 241.52 963.36 248.93C963.36 255.48 958.67 260.92 952.46 262.1C949.15 271.27 940.38 277.83 930.07 277.83C925.95 277.83 922.08 276.78 918.7 274.94C914.92 278.09 910.05 279.99 904.74 279.99C897.94 279.99 891.87 276.88 887.87 272.01C885.31 274.71 881.69 276.4 877.68 276.4C873.48 276.4 869.7 274.55 867.13 271.62C866.46 271.69 865.79 271.73 865.11 271.73C855.11 271.73 847 263.62 847 253.62C847 245.15 852.81 238.05 860.65 236.06C860.81 226.78 868.37 219.31 877.69 219.31C880.79 219.31 883.7 220.15 886.21 221.6C889.95 215.26 896.85 211 904.75 211C912.85 211 919.91 215.48 923.58 222.1C926.17 220.34 929.3 219.31 932.67 219.31C941.62 219.31 948.87 226.56 948.87 235.51V235.56C948.963 235.555 949.055 235.549 949.146 235.543L949.147 235.543C949.411 235.527 949.673 235.51 949.94 235.51ZM528 218.9C528 213.2 523.42 208.58 517.74 208.51C517.74 208.466 517.742 208.421 517.745 208.377C517.747 208.356 517.748 208.336 517.75 208.315C517.755 208.25 517.76 208.185 517.76 208.12C517.76 202.29 513.03 197.56 507.2 197.56C506.4 197.56 505.62 197.66 504.87 197.83C502.49 190.39 495.52 185 487.29 185C479.94 185 473.59 189.3 470.62 195.52C468.23 193.99 465.39 193.1 462.34 193.1C453.83 193.1 446.94 199.99 446.94 208.5C446.94 209.44 447.03 210.36 447.19 211.25C440.79 212.62 436 218.31 436 225.12C436 232.95 442.35 239.3 450.18 239.3C452.31 239.3 454.34 238.83 456.15 237.98C458.3 242.68 463.05 245.95 468.56 245.95C471.91 245.95 474.97 244.74 477.35 242.74C478.88 244.73 481.27 246.02 483.98 246.02C487.73 246.02 490.9 243.55 491.96 240.15C494.69 242.8 498.41 244.44 502.51 244.44C510.87 244.44 517.65 237.66 517.65 229.3C523.37 229.27 528 224.63 528 218.9ZM134.05 124.24C137.11 125.82 139.2 129 139.2 132.68C139.2 137.78 135.17 141.93 130.12 142.15C128.48 150.93 120.78 157.57 111.53 157.57C103.62 157.57 96.84 152.71 94.02 145.81C91.49 148.11 87.93 149.55 83.98 149.55C78.44 149.55 73.66 146.72 71.42 142.64C69.81 143.44 68 143.9 66.08 143.9C59.41 143.9 54 138.49 54 131.82C54 125.15 59.41 119.74 66.08 119.74C67.46 119.74 68.78 119.98 70.02 120.41C69.39 118.75 69.02 116.95 69.02 115.06C69.02 106.79 75.72 100.09 83.99 100.09C88.2 100.09 91.99 101.83 94.71 104.62C98.41 97.7 105.71 93 114.1 93C126.25 93 136.09 102.85 136.09 114.99C136.09 118.3 135.35 121.43 134.05 124.24Z" fill="#D4F0FF"/>
</svg>
