<svg width="1440" height="319" viewBox="0 0 1440 319" fill="none" xmlns="http://www.w3.org/2000/svg">
<path fill-rule="evenodd" clip-rule="evenodd" d="M1296.36 68.93C1296.36 61.52 1290.35 55.51 1282.94 55.51C1282.67 55.51 1282.41 55.5265 1282.15 55.5432C1282.05 55.549 1281.96 55.5548 1281.87 55.56V55.51C1281.87 46.56 1274.62 39.31 1265.67 39.31C1262.3 39.31 1259.17 40.34 1256.58 42.1C1252.91 35.48 1245.85 31 1237.75 31C1229.85 31 1222.95 35.26 1219.21 41.6C1216.7 40.15 1213.79 39.31 1210.69 39.31C1201.37 39.31 1193.81 46.78 1193.65 56.06C1185.81 58.05 1180 65.15 1180 73.62C1180 83.62 1188.11 91.73 1198.11 91.73C1198.79 91.73 1199.46 91.69 1200.13 91.62C1202.7 94.55 1206.48 96.4 1210.68 96.4C1214.69 96.4 1218.31 94.71 1220.87 92.01C1224.87 96.88 1230.94 99.99 1237.74 99.99C1243.05 99.99 1247.92 98.09 1251.7 94.94C1255.08 96.78 1258.95 97.83 1263.07 97.83C1273.38 97.83 1282.15 91.27 1285.46 82.1C1291.67 80.92 1296.36 75.48 1296.36 68.93ZM525.78 142.52C526.54 142.35 527.33 142.25 528.14 142.25C534.01 142.25 538.77 147.01 538.76 152.88C538.76 158.74 534 163.5 528.13 163.5C525.85 163.5 523.74 162.77 522.01 161.55C519.27 163.9 515.72 165.33 511.83 165.33C507.13 165.33 502.92 163.25 500.05 159.97C499.29 160.09 498.52 160.17 497.73 160.2C495.48 167.84 488.42 173.42 480.05 173.42C472.31 173.42 465.69 168.65 462.96 161.88C460.27 164.03 456.87 165.33 453.16 165.33C451.94 165.33 450.75 165.18 449.61 164.91C444.82 170.14 437.93 173.42 430.28 173.42C426.71 173.42 423.31 172.7 420.21 171.41C415.81 175 410.19 177.15 404.07 177.15C396.67 177.15 390.01 174 385.34 168.98C380.87 173.23 374.83 175.85 368.17 175.85C358.88 175.85 350.79 170.77 346.5 163.23C345.44 163.39 344.36 163.5 343.25 163.5C331.51 163.5 322 153.99 322 142.25C322 130.52 331.51 121 343.25 121C349.41 121 354.94 123.63 358.82 127.82C361.66 126.67 364.76 126.02 368.01 126C371.22 117.81 379.18 112 388.51 112C398.03 112 406.14 118.05 409.2 126.51C410.48 126.77 411.73 127.12 412.94 127.57C417.57 123.48 423.64 120.99 430.3 120.99C439.96 120.99 448.39 126.22 452.94 134C452.98 134 453.02 133.997 453.06 133.995L453.105 133.992C453.12 133.992 453.134 133.991 453.149 133.99C453.159 133.99 453.17 133.99 453.18 133.99C454.39 133.99 455.55 134.14 456.68 134.4C457.73 126.83 464.2 120.99 472.06 120.99C478.32 120.99 483.7 124.7 486.16 130.03C489.14 127.51 492.98 125.99 497.19 125.99C503.29 125.99 508.63 129.19 511.66 134C511.696 134 511.73 133.997 511.762 133.995C511.779 133.993 511.795 133.992 511.811 133.991C511.824 133.99 511.837 133.99 511.85 133.99C517.92 133.99 523.18 137.46 525.78 142.52ZM1089.77 154.79C1090.71 155.91 1091.5 157.16 1092.11 158.51C1098.21 158.83 1103.07 163.87 1103.08 170.04C1103.08 176.43 1097.9 181.61 1091.51 181.61C1090.87 181.61 1090.24 181.54 1089.63 181.44C1088.06 185.32 1081.92 188.22 1074.57 188.22C1069.51 188.22 1065.03 186.84 1062.21 184.72C1057.94 188.03 1052.59 190 1046.77 190C1043.59 190 1040.55 189.41 1037.75 188.34C1035.53 191.46 1031.89 193.5 1027.77 193.5C1024.3 193.5 1021.18 192.06 1018.95 189.74C1016.45 193.22 1012.38 195.5 1007.77 195.5C1001.52 195.5 996.25 191.32 994.58 185.6C990.14 188.32 984.09 190 977.4 190C971.9 190 966.83 188.87 962.73 186.95C960.01 189.17 956.55 190.5 952.77 190.5C947 190.5 941.97 187.39 939.23 182.77C936.6 186.39 932.34 188.75 927.52 188.75C925.75 188.75 924.05 188.42 922.48 187.83C919.88 191.05 915.91 193.11 911.45 193.11C905.36 193.11 900.18 189.26 898.17 183.87C896.72 185.08 894.86 185.82 892.82 185.82C890.94 185.82 889.2 185.18 887.81 184.12C884.28 187.27 879.63 189.2 874.52 189.2C869.63 189.2 865.15 187.44 861.67 184.52C860.54 187.15 857.93 188.99 854.89 188.99C852.68 188.99 850.7 188.01 849.35 186.47C846.07 187.77 842.5 188.49 838.76 188.49C830.67 188.49 823.36 185.15 818.14 179.77C817.16 180.31 816.05 180.63 814.87 180.68C813.49 186.15 808.54 190.21 802.64 190.21C799.07 190.21 795.85 188.72 793.55 186.34C791.67 188.05 789.19 189.1 786.45 189.1C782.11 189.1 778.38 186.47 776.76 182.73C774.76 182.44 772.92 181.64 771.39 180.46C770.78 180.61 770.14 180.7 769.48 180.7C768.22 180.7 767.04 180.4 765.99 179.89C763.44 186 757.42 190.29 750.39 190.29C742.23 190.29 735.42 184.51 733.84 176.81C733.25 176.93 732.63 177 732 177C730.23 177 728.58 176.48 727.19 175.6C723.64 180.41 717.95 183.54 711.51 183.54C700.73 183.54 692 174.81 692 164.03C692 155.34 697.68 147.99 705.52 145.46C705.51 145.15 705.5 144.84 705.5 144.52C705.5 130.43 716.93 119 731.02 119C740.38 119 748.56 124.04 753 131.56C756.91 128.4 761.87 126.5 767.29 126.5C777.59 126.5 786.28 133.36 789.06 142.76C792.2 140.71 795.95 139.5 799.99 139.5C805.42 139.5 810.35 141.67 813.95 145.19C818.95 136.7 828.18 131 838.74 131C851.59 131 862.46 139.43 866.15 151.05C868.69 149.88 871.51 149.21 874.49 149.21C880.36 149.21 885.63 151.75 889.29 155.79C891.47 154.05 894.23 153 897.24 153C898.38 153 899.48 153.17 900.53 153.45C900.95 145.68 907.37 139.5 915.24 139.5C917.52 139.5 919.67 140.04 921.6 140.96C923.11 128.59 933.63 119 946.41 119C959.32 119 969.94 128.78 971.27 141.34C973.78 140.17 976.56 139.5 979.5 139.5C985.41 139.5 990.69 142.14 994.27 146.29C998.39 142.1 1004.12 139.5 1010.46 139.5C1017.53 139.5 1023.85 142.74 1028.02 147.82C1032.64 142.71 1039.32 139.5 1046.75 139.5C1054.21 139.5 1060.92 142.74 1065.54 147.89C1068.16 146.24 1071.24 145.27 1074.56 145.27C1081.25 145.27 1087.02 149.16 1089.77 154.79ZM174.74 264.51C180.42 264.58 185 269.2 185 274.9C185 280.63 180.37 285.27 174.65 285.3C174.65 293.66 167.87 300.44 159.51 300.44C155.41 300.44 151.69 298.8 148.96 296.15C147.9 299.55 144.73 302.02 140.98 302.02C138.27 302.02 135.88 300.73 134.35 298.74C131.97 300.74 128.91 301.95 125.56 301.95C120.05 301.95 115.3 298.68 113.15 293.98C111.34 294.83 109.31 295.3 107.18 295.3C99.35 295.3 93 288.95 93 281.12C93 274.31 97.79 268.62 104.19 267.25C104.03 266.36 103.94 265.44 103.94 264.5C103.94 255.99 110.83 249.1 119.34 249.1C122.39 249.1 125.23 249.99 127.62 251.52C130.59 245.3 136.94 241 144.29 241C152.52 241 159.49 246.39 161.87 253.83C162.62 253.66 163.4 253.56 164.2 253.56C170.03 253.56 174.76 258.29 174.76 264.12C174.76 264.185 174.755 264.25 174.75 264.315C174.745 264.38 174.74 264.445 174.74 264.51Z" fill="#D4F0FF"/>
</svg>
