<svg width="1440" height="319" viewBox="0 0 1440 319" fill="none" xmlns="http://www.w3.org/2000/svg">
<path fill-rule="evenodd" clip-rule="evenodd" d="M1148.5 66.2401C1148.5 59.34 1142.9 53.7401 1136 53.7401C1134.42 53.7401 1132.91 54.05 1131.52 54.58C1131.66 53.63 1131.75 52.68 1131.75 51.69C1131.75 40.51 1122.69 31.45 1111.51 31.45C1103.94 31.45 1097.35 35.62 1093.88 41.78C1093 26.85 1080.62 15 1065.47 15C1054.85 15 1045.59 20.82 1040.7 29.44C1033.29 24.21 1024.26 21.13 1014.5 21.13C999.13 21.13 985.54 28.76 977.31 40.44C973.5 38.57 969.22 37.52 964.69 37.52C950.26 37.52 938.32 48.17 936.28 62.03C930.23 64.64 926 70.64 926 77.65C926 87.04 933.61 94.65 943 94.65C946.33 94.65 949.43 93.68 952.05 92.02C955.86 93.89 960.15 94.95 964.69 94.95C969.05 94.95 973.19 93.97 976.89 92.23C985.08 104.24 998.87 112.13 1014.51 112.13C1018.73 112.13 1022.81 111.54 1026.69 110.47C1030.36 114.85 1035.87 117.65 1042.03 117.65C1050.63 117.65 1057.94 112.21 1060.76 104.6C1066.41 109.31 1073.68 112.14 1081.6 112.14C1087.58 112.14 1093.18 110.52 1098 107.71C1100.63 110.44 1104.32 112.14 1108.41 112.14C1112.91 112.14 1116.93 110.09 1119.59 106.86C1120.86 107.1 1122.16 107.24 1123.5 107.24C1134.82 107.24 1144 98.0601 1144 86.7401C1144 83.3501 1143.16 80.17 1141.71 77.35C1145.74 75.27 1148.5 71.0801 1148.5 66.2401ZM792 168.67C792 158.55 783.79 150.34 773.67 150.34C772.77 150.34 771.89 150.43 771.03 150.55C767.74 138.15 756.44 129 743 129C736.78 129 731.03 130.96 726.3 134.3C724.49 121.14 713.21 111 699.56 111C689.23 111 680.27 116.8 675.72 125.32C670.71 121.77 664.6 119.67 657.99 119.67C645.52 119.67 634.79 127.12 630 137.81C627.61 136.82 624.99 136.26 622.24 136.26C611.07 136.26 602.02 145.31 602.02 156.48C602.02 158.26 602.27 159.98 602.71 161.62C599.84 163.97 598 167.53 598 171.53C598 178.6 603.73 184.33 610.8 184.33C612.2 184.33 613.55 184.1 614.81 183.68C616.99 190.47 623.35 195.4 630.87 195.4C635.04 195.4 638.86 193.87 641.8 191.36C646.03 194.36 651.19 196.13 656.76 196.13C661.59 196.13 666.11 194.8 669.97 192.5C671.93 193.98 674.35 194.86 676.99 194.86C679.32 194.86 681.49 194.17 683.31 192.99C686.6 198.54 692.63 202.28 699.56 202.28C706.35 202.28 712.28 198.69 715.61 193.31C718.52 195.99 722.4 197.65 726.66 197.65C732.02 197.65 736.76 195.06 739.73 191.07C743.55 196.85 750.09 200.66 757.53 200.66C766.77 200.66 774.61 194.78 777.58 186.56C785.84 184.77 792 177.44 792 168.67ZM234.78 115.52C235.54 115.35 236.33 115.25 237.14 115.25C243.01 115.25 247.77 120.01 247.76 125.88C247.76 131.74 243 136.5 237.13 136.5C234.85 136.5 232.74 135.77 231.01 134.55C228.27 136.9 224.72 138.33 220.83 138.33C216.13 138.33 211.92 136.25 209.05 132.97C208.29 133.09 207.52 133.17 206.73 133.2C204.48 140.84 197.42 146.42 189.05 146.42C181.31 146.42 174.69 141.65 171.96 134.88C169.27 137.03 165.87 138.33 162.16 138.33C160.94 138.33 159.75 138.18 158.61 137.91C153.82 143.14 146.93 146.42 139.28 146.42C135.71 146.42 132.31 145.7 129.21 144.41C124.81 148 119.19 150.15 113.07 150.15C105.67 150.15 99.01 147 94.34 141.98C89.87 146.23 83.83 148.85 77.17 148.85C67.88 148.85 59.79 143.77 55.5 136.23C54.44 136.39 53.36 136.5 52.25 136.5C40.51 136.5 31 126.99 31 115.25C31 103.52 40.51 94 52.25 94C58.41 94 63.94 96.6299 67.82 100.82C70.66 99.6699 73.76 99.02 77.01 99C80.22 90.81 88.18 85 97.51 85C107.03 85 115.14 91.05 118.2 99.51C119.48 99.77 120.73 100.12 121.94 100.57C126.57 96.4799 132.64 93.99 139.3 93.99C148.96 93.99 157.39 99.22 161.94 107C161.95 107 161.959 107 161.969 107L161.986 106.999L162.016 106.998L162.06 106.995C162.076 106.994 162.092 106.993 162.107 106.992C162.132 106.991 162.156 106.99 162.18 106.99C163.39 106.99 164.55 107.14 165.68 107.4C166.73 99.83 173.2 93.99 181.06 93.99C187.32 93.99 192.7 97.7 195.16 103.03C198.14 100.51 201.98 98.99 206.19 98.99C212.29 98.99 217.63 102.19 220.66 107C220.681 107 220.701 106.999 220.72 106.998L220.745 106.996L220.762 106.995C220.792 106.992 220.821 106.99 220.85 106.99C226.92 106.99 232.18 110.46 234.78 115.52ZM1382.87 151.55C1379.64 151.55 1376.63 152.49 1374.08 154.1C1372.64 144.85 1364.66 137.77 1355 137.77C1353.82 137.77 1352.67 137.89 1351.55 138.1C1353.06 134.98 1353.9 131.48 1353.9 127.78C1353.9 114.64 1343.25 104 1330.12 104C1317.71 104 1307.52 113.51 1306.44 125.65C1304.49 124.59 1302.26 123.99 1299.89 123.99C1296.05 123.99 1292.58 125.56 1290.08 128.09C1286.13 122.77 1279.81 119.33 1272.67 119.33C1260.7 119.33 1251 129.03 1251 141V141.09C1242 141.91 1234.76 148.75 1233.29 157.55C1232.24 157.27 1231.14 157.11 1230 157.11C1222.82 157.11 1217 162.93 1217 170.11C1217 177.29 1222.82 183.11 1230 183.11C1233.08 183.11 1235.91 182.03 1238.13 180.24C1239.49 181.5 1241.24 182.33 1243.19 182.53C1244.11 187.36 1248.35 191.01 1253.45 191.01C1256.66 191.01 1259.53 189.56 1261.45 187.28C1264.93 192.49 1270.86 195.92 1277.59 195.92C1284.29 195.92 1290.2 192.52 1293.68 187.36C1297.67 193.84 1304.83 198.16 1312.99 198.16C1321.83 198.16 1329.48 193.1 1333.22 185.72C1336.52 190.64 1342.13 193.88 1348.5 193.88C1355.61 193.88 1361.77 189.84 1364.82 183.93C1366.01 184.37 1367.3 184.63 1368.64 184.63C1370.99 184.63 1373.17 183.88 1374.96 182.62C1377.31 183.9 1380 184.63 1382.86 184.63C1391.99 184.63 1399.39 177.23 1399.39 168.1C1399.4 158.95 1392 151.55 1382.87 151.55ZM549 47C562.32 47 573.39 56.65 575.59 69.35C583.03 70.19 588.82 76.4999 588.83 84.1699C588.83 92.3999 582.16 99.08 573.92 99.08C570.46 99.08 567.29 97.8899 564.76 95.9199C560.32 99.1099 554.88 101 549 101C545.15 101 541.48 100.19 538.16 98.73C534.04 104.92 527 109 519 109C509.7 109 501.7 103.48 498.07 95.5399C494.2 97.4399 489.85 98.5 485.25 98.5C479.8 98.5 474.71 97.0099 470.35 94.4199C466.6 97.6899 461.71 99.6899 456.34 99.6899C444.56 99.6899 435 90.14 435 78.35C435 66.56 444.55 57 456.34 57C457.12 57 457.88 57.05 458.63 57.13C463.24 47.03 473.42 40 485.25 40C488 40 490.67 40.39 493.2 41.1C498.25 34.94 505.91 31 514.5 31C526.16 31 536.12 38.26 540.12 48.5C542.9 47.53 545.89 47 549 47ZM262.935 151.863C272.85 155.171 274.762 163.685 276.707 172.346L276.707 172.347L276.707 172.348C276.826 172.877 276.945 173.405 277.065 173.933C284.115 162.443 294.775 174.443 291.805 184.003C291.485 184.113 291.925 184.053 292.045 183.733C294.695 176.473 314.245 183.313 314.655 191.683C315.245 203.663 299.105 204.843 291.315 200.513C299.675 217.403 263.235 215.583 266.465 202.533C262.325 219.263 218.185 220.333 218.985 201.283C218.735 207.173 188.985 212.863 190.995 198.293C167.425 205.963 178.315 174.423 189.665 187.063C184.115 177.473 197.035 174.343 202.745 181.033C192.425 168.943 221.005 156.233 228.495 170.453C223.905 161.203 236.645 157.383 239.345 166.553C237.645 157.223 247.765 151.913 255.615 151.103C258.275 150.823 260.715 151.123 262.935 151.863ZM955.94 223.51C963.35 223.51 969.36 229.52 969.36 236.93C969.36 243.48 964.67 248.92 958.46 250.1C955.15 259.27 946.38 265.83 936.07 265.83C931.95 265.83 928.08 264.78 924.7 262.94C920.92 266.09 916.05 267.99 910.74 267.99C903.94 267.99 897.87 264.88 893.87 260.01C891.31 262.71 887.69 264.4 883.68 264.4C879.48 264.4 875.7 262.55 873.13 259.62C872.46 259.69 871.79 259.73 871.11 259.73C861.11 259.73 853 251.62 853 241.62C853 233.15 858.81 226.05 866.65 224.06C866.81 214.78 874.37 207.31 883.69 207.31C886.79 207.31 889.7 208.15 892.21 209.6C895.95 203.26 902.85 199 910.75 199C918.85 199 925.91 203.48 929.58 210.1C932.17 208.34 935.3 207.31 938.67 207.31C947.62 207.31 954.87 214.56 954.87 223.51V223.56C954.963 223.555 955.055 223.549 955.146 223.543C955.213 223.539 955.279 223.535 955.345 223.531C955.542 223.519 955.74 223.51 955.94 223.51ZM202 259.9C202 254.2 197.42 249.58 191.74 249.51C191.74 249.47 191.742 249.43 191.745 249.39C191.746 249.365 191.748 249.34 191.75 249.315C191.755 249.25 191.76 249.185 191.76 249.12C191.76 243.29 187.03 238.56 181.2 238.56C180.4 238.56 179.62 238.66 178.87 238.83C176.49 231.39 169.52 226 161.29 226C153.94 226 147.59 230.3 144.62 236.52C142.23 234.99 139.39 234.1 136.34 234.1C127.83 234.1 120.94 240.99 120.94 249.5C120.94 250.44 121.03 251.36 121.19 252.25C114.79 253.62 110 259.31 110 266.12C110 273.95 116.35 280.3 124.18 280.3C126.31 280.3 128.34 279.83 130.15 278.98C132.3 283.68 137.05 286.95 142.56 286.95C145.91 286.95 148.97 285.74 151.35 283.74C152.88 285.73 155.27 287.02 157.98 287.02C161.73 287.02 164.9 284.55 165.96 281.15C168.69 283.8 172.41 285.44 176.51 285.44C184.87 285.44 191.65 278.66 191.65 270.3C197.37 270.27 202 265.63 202 259.9ZM1391.05 248.24C1394.11 249.82 1396.2 253 1396.2 256.68C1396.2 261.78 1392.17 265.93 1387.12 266.15C1385.48 274.93 1377.78 281.57 1368.53 281.57C1360.62 281.57 1353.84 276.71 1351.02 269.81C1348.49 272.11 1344.93 273.55 1340.98 273.55C1335.44 273.55 1330.66 270.72 1328.42 266.64C1326.81 267.44 1325 267.9 1323.08 267.9C1316.41 267.9 1311 262.49 1311 255.82C1311 249.15 1316.41 243.74 1323.08 243.74C1324.46 243.74 1325.78 243.98 1327.02 244.41C1326.39 242.75 1326.02 240.95 1326.02 239.06C1326.02 230.79 1332.72 224.09 1340.99 224.09C1345.2 224.09 1348.99 225.83 1351.71 228.62C1355.41 221.7 1362.71 217 1371.1 217C1383.25 217 1393.09 226.85 1393.09 238.99C1393.09 242.3 1392.35 245.43 1391.05 248.24Z" fill="#D4F0FF"/>
</svg>
